<svg width="20" height="20" viewBox="0 0 20 20" fill="none" xmlns="http://www.w3.org/2000/svg">
<path id="Vector" fill-rule="evenodd" clip-rule="evenodd" d="M13.2813 7.556C13.2813 7.97 13.6087 8.306 14.0121 8.306C14.4155 8.306 14.7429 7.97 14.7429 7.556V5.97461H14.9563C16.8407 5.97461 18.3744 7.54661 18.3744 9.4796V14.9956C18.3744 16.9276 16.8407 18.4996 14.9563 18.4996H5.71553C3.83112 18.4996 2.29748 16.9276 2.29748 14.9956V9.4796C2.29748 7.54661 3.83112 5.97461 5.71553 5.97461H5.91326V7.556C5.91326 7.97 6.24065 8.306 6.64403 8.306C7.04742 8.306 7.3748 7.97 7.3748 7.556V5.97461H13.2813V7.556ZM14.7426 4.47461H14.9563C17.6475 4.47461 19.8359 6.71961 19.8359 9.4796V14.9956C19.8359 17.7546 17.6475 19.9996 14.9563 19.9996H5.71553C3.02532 19.9996 0.835938 17.7546 0.835938 14.9956V9.4796C0.835938 6.71961 3.02532 4.47461 5.71553 4.47461H5.91371C5.93062 3.26464 6.39218 2.1496 7.21793 1.311C8.05393 0.46 9.17644 0.035 10.3397 0C12.7508 0 14.7167 2.00325 14.7426 4.47461ZM7.37511 4.47461C7.38659 3.68051 7.69552 2.93691 8.24685 2.376C8.80614 1.808 9.54664 1.528 10.3368 1.5C11.945 1.5 13.2552 2.83028 13.2809 4.47461H7.37511Z" fill="#434343"/>
</svg>
