<svg width="27" height="18" viewBox="0 0 27 18" fill="none" xmlns="http://www.w3.org/2000/svg">
<path id="Vector" d="M0.335938 1C0.335938 0.44772 0.783657 0 1.33594 0H22.0026C22.5549 0 23.0026 0.44772 23.0026 1C23.0026 1.55228 22.5549 2 22.0026 2H1.33594C0.783657 2 0.335938 1.55228 0.335938 1ZM0.335938 17C0.335938 16.4477 0.783657 16 1.33594 16H18.0026C18.5549 16 19.0026 16.4477 19.0026 17C19.0026 17.5523 18.5549 18 18.0026 18H1.33594C0.783657 18 0.335938 17.5523 0.335938 17ZM1.33594 8C0.783657 8 0.335938 8.44773 0.335938 9C0.335938 9.55227 0.783657 10 1.33594 10H26.0026C26.5549 10 27.0026 9.55227 27.0026 9C27.0026 8.44773 26.5549 8 26.0026 8H1.33594Z" fill="#434343"/>
</svg>
