<svg width="16" height="20" viewBox="0 0 16 20" fill="none" xmlns="http://www.w3.org/2000/svg">
<path id="Vector" fill-rule="evenodd" clip-rule="evenodd" d="M4.11553 5.37543C4.11553 3.23443 5.85753 1.49343 7.99852 1.49343C10.1385 1.49343 11.8795 3.23443 11.8795 5.37543C11.8795 7.51543 10.1385 9.25743 7.99852 9.25743V9.97143L7.96953 9.25743C5.83754 9.24943 4.10853 7.50943 4.11553 5.37543ZM7.96653 10.6844H7.99852C10.9265 10.6844 13.3075 8.30343 13.3075 5.37543C13.3075 2.44743 10.9265 0.0654297 7.99852 0.0654297C5.06953 0.0654297 2.68753 2.44743 2.68753 5.37243C2.67753 8.29243 5.04454 10.6754 7.96653 10.6844ZM1.57812 16.2385C1.57812 14.7935 3.73812 14.0615 7.99912 14.0615C12.2591 14.0615 14.4181 14.8005 14.4181 16.2585C14.4181 17.7035 12.2591 18.4355 7.99912 18.4355C3.73812 18.4355 1.57812 17.6965 1.57812 16.2385ZM0.078125 16.2385C0.078125 19.9355 6.04012 19.9355 7.99912 19.9355C11.3981 19.9355 15.9181 19.5545 15.9181 16.2585C15.9181 12.5615 9.95812 12.5615 7.99912 12.5615C4.59912 12.5615 0.078125 12.9425 0.078125 16.2385Z" fill="#434343"/>
</svg>
