<svg width="14" height="14" viewBox="0 0 14 14" fill="none" xmlns="http://www.w3.org/2000/svg">
<g id="&#240;&#159;&#166;&#134; icon &#34;instagram icon&#34;">
<path id="Vector" d="M4.36305 7.03699C4.36305 5.52788 5.58647 4.30446 7.09559 4.30446C8.60473 4.30446 9.82812 5.52788 9.82812 7.03699C9.82812 8.54613 8.60473 9.76953 7.09559 9.76953C5.58647 9.76953 4.36305 8.54613 4.36305 7.03699Z" stroke="#0825EB" stroke-width="1.32444" stroke-linecap="round" stroke-linejoin="round"/>
<path id="Vector_2" d="M4.3629 13.1855L9.82798 13.1855C11.7144 13.1855 13.2437 11.6563 13.2437 9.76987L13.2437 4.3048C13.2437 2.41839 11.7144 0.889126 9.82798 0.889126L4.3629 0.889126C2.4765 0.889126 0.947231 2.41839 0.947231 4.3048L0.947231 9.76987C0.947231 11.6563 2.4765 13.1855 4.3629 13.1855Z" stroke="#0825EB" stroke-width="1.32444"/>
<path id="Vector_3" d="M10.8463 3.2793L10.854 3.27234" stroke="#0825EB" stroke-width="1.32444" stroke-linecap="round" stroke-linejoin="round"/>
</g>
</svg>
